HIERARCHY
ROOT Hips
{
	OFFSET 0.00000 0.00000 0.00000
	CHANNELS 6 Xposition Yposition Zposition Zrotation Yrotation Xrotation 
	JOINT LHipJoint
	{
		OFFSET 0 0 0
		CHANNELS 3 Zrotation Yrotation Xrotation
		JOINT LeftUpLeg
		{
			OFFSET 1.56857 -1.73443 1.15205
			CHANNELS 3 Zrotation Yrotation Xrotation
			JOINT LeftLeg
			{
				OFFSET 2.39362 -6.57643 0.00000
				CHANNELS 3 Zrotation Yrotation Xrotation
				JOINT LeftFoot
				{
					OFFSET 2.50952 -6.89485 0.00000
					CHANNELS 3 Zrotation Yrotation Xrotation
					JOINT LeftToeBase
					{
						OFFSET 0.17171 -0.47178 1.88682
						CHANNELS 3 Zrotation Yrotation Xrotation
						End Site
						{
							OFFSET 0.00000 -0.00000 0.98146
						}
					}
				}
			}
		}
	}
	JOINT RHipJoint
	{
		OFFSET 0 0 0
		CHANNELS 3 Zrotation Yrotation Xrotation
		JOINT RightUpLeg
		{
			OFFSET -1.28153 -1.73443 1.15205
			CHANNELS 3 Zrotation Yrotation Xrotation
			JOINT RightLeg
			{
				OFFSET -2.26861 -6.23296 0.00000
				CHANNELS 3 Zrotation Yrotation Xrotation
				JOINT RightFoot
				{
					OFFSET -2.54143 -6.98254 0.00000
					CHANNELS 3 Zrotation Yrotation Xrotation
					JOINT RightToeBase
					{
						OFFSET -0.23309 -0.64041 1.93119
						CHANNELS 3 Zrotation Yrotation Xrotation
						End Site
						{
							OFFSET -0.00000 -0.00000 1.02013
						}
					}
				}
			}
		}
	}
	JOINT LowerBack
	{
		OFFSET 0 0 0
		CHANNELS 3 Zrotation Yrotation Xrotation
		JOINT Spine
		{
			OFFSET -0.07096 2.10460 -0.27878
			CHANNELS 3 Zrotation Yrotation Xrotation
			JOINT Spine1
			{
				OFFSET -0.00826 2.13662 -0.08279
				CHANNELS 3 Zrotation Yrotation Xrotation
				JOINT Neck
				{
					OFFSET 0 0 0
					CHANNELS 3 Zrotation Yrotation Xrotation
					JOINT Neck1
					{
						OFFSET 0.03239 1.77799 0.24435
						CHANNELS 3 Zrotation Yrotation Xrotation
						JOINT Head
						{
							OFFSET 0.01026 1.74194 -0.49664
							CHANNELS 3 Zrotation Yrotation Xrotation
							End Site
							{
								OFFSET 0.00170 1.83057 -0.19653
							}
						}
					}
				}
				JOINT LeftShoulder
				{
					OFFSET 0 0 0
					CHANNELS 3 Zrotation Yrotation Xrotation
					JOINT LeftArm
					{
						OFFSET 3.19178 1.35907 -0.31412
						CHANNELS 3 Zrotation Yrotation Xrotation
						JOINT LeftForeArm
						{
							OFFSET 4.85247 -0.00000 -0.00000
							CHANNELS 3 Zrotation Yrotation Xrotation
							JOINT LeftHand
							{
								OFFSET 3.55584 -0.00000 0.00000
								CHANNELS 3 Zrotation Yrotation Xrotation
								JOINT LeftFingerBase
								{
									OFFSET 0 0 0
									CHANNELS 3 Zrotation Yrotation Xrotation
									JOINT LeftHandIndex1
									{
										OFFSET 0.69320 -0.00000 0.00000
										CHANNELS 3 Zrotation Yrotation Xrotation
										End Site
										{
											OFFSET 0.55888 -0.00000 0.00000
										}
									}
								}
								JOINT LThumb
								{
									OFFSET 0 0 0
									CHANNELS 3 Zrotation Yrotation Xrotation
									End Site
									{
										OFFSET 0.56741 -0.00000 0.56741
									}
								}
							}
						}
					}
				}
				JOINT RightShoulder
				{
					OFFSET 0 0 0
					CHANNELS 3 Zrotation Yrotation Xrotation
					JOINT RightArm
					{
						OFFSET -3.28999 1.24191 -0.26899
						CHANNELS 3 Zrotation Yrotation Xrotation
						JOINT RightForeArm
						{
							OFFSET -4.64462 -0.00000 0.00000
							CHANNELS 3 Zrotation Yrotation Xrotation
							JOINT RightHand
							{
								OFFSET -3.40703 -0.00000 0.00000
								CHANNELS 3 Zrotation Yrotation Xrotation
								JOINT RightFingerBase
								{
									OFFSET 0 0 0
									CHANNELS 3 Zrotation Yrotation Xrotation
									JOINT RightHandIndex1
									{
										OFFSET -0.61958 -0.00000 0.00000
										CHANNELS 3 Zrotation Yrotation Xrotation
										End Site
										{
											OFFSET -0.49952 -0.00000 0.00000
										}
									}
								}
								JOINT RThumb
								{
									OFFSET 0 0 0
									CHANNELS 3 Zrotation Yrotation Xrotation
									End Site
									{
										OFFSET -0.50715 -0.00000 0.50715
									}
								}
							}
						}
					}
				}
			}
		}
	}
}
MOTION
Frames: 10
Frame Time: 0.0606061
0.00 0.00 0.00 12.6173 85.2084 13.5120 0.0000 0.0000 0.0000 -15.9327 3.7629 9.8319 0.0172 -0.8460 -2.3251 0.2809 6.4545 -14.4194 0.1263 -2.2911 -6.3110 0.0000 0.0000 0.0000 14.4237 -5.3763 5.1610 -0.0242 -1.0039 2.7595 -0.6657 4.1309 -14.5679 -0.0098 -0.6381 1.7535 -2.7343 1.3789 3.5637 -0.0903 1.7311 0.2376 1.3504 0.8877 -1.8315 4.5519 3.4759 -20.2901 -2.6788 4.5513 26.3546 -1.0058 2.2514 12.2446 -0.0000 -0.0000 0.0000 -0.0000 0.0000 -0.0000 -0.0000 0.0000 -0.0000 -0.0000 0.0000 0.0000 -0.0000 -0.0000 0.0000 -0.0000 -0.0000 0.0000 -0.0000 0.0000 0.0000 -0.0000 -0.0000 0.0000 0.0000 -0.0000 -0.0000 0.0000 -0.0000 -0.0000 0.0000 0.0000 0.0000 0.0000 0.0000 0.0000 0.0000 0.0000 0.0000 0.0000 -0.0000 0.0000
0.00 0.00 0.00 179.0290 71.4557 180.8560 0.0000 0.0000 0.0000 -13.7190 -5.5256 -4.3217 0.5953 4.9396 13.7363 -0.0033 -7.9138 -5.4749 0.0403 1.2951 3.5610 0.0000 0.0000 0.0000 17.8555 -10.6075 -0.4163 -0.2531 -3.2368 8.9387 -1.2219 -9.5523 -26.3425 -0.1032 -2.0714 5.7030 3.1421 2.1781 10.1258 0.2399 3.3228 2.5512 -1.9250 1.6798 -2.8504 8.4594 7.1455 -18.1330 -8.7084 12.1479 31.8576 -2.6750 5.4411 15.2959 0.0000 0.0000 0.0000 -84.1476 3.1236 43.0042 18.2593 -28.4879 -4.6723 -0.0000 0.0000 -3.2383 24.3662 -23.6969 -10.3162 -7.1250 0.0000 -0.0000 -2.9904 4.2841 2.7625 0.0000 0.0000 0.0000 84.8115 -1.6866 35.7653 -14.9873 24.1285 -3.2208 0.0000 0.0000 7.7234 -9.6886 -30.6679 4.9769 7.1250 -0.0000 -0.0000 24.7265 -59.2634 -8.9536
0.00 0.00 0.00 181.1730 40.2992 182.0840 0.0000 0.0000 0.0000 -6.9553 9.6582 -12.2567 0.0576 1.5485 4.2594 -0.4552 17.4753 -20.1219 1.0387 6.4820 18.1896 0.0000 0.0000 0.0000 18.0263 -20.6146 1.1446 -0.3471 -3.7854 10.4738 -1.5112 -21.4781 -38.9241 -0.2840 -3.4275 9.4713 5.0185 2.9450 9.6355 -0.5168 4.5260 2.6514 -3.8515 2.3118 -2.2006 7.0310 4.4828 -18.7548 -5.9577 8.6783 34.3493 -1.9203 4.4065 15.9288 -0.0000 0.0000 0.0000 -85.1225 9.5936 17.4482 10.7174 -17.8538 -1.6883 -0.0000 -0.0000 10.5350 23.6274 -23.4298 -9.8676 -7.1250 0.0000 -0.0000 -3.4162 4.7038 3.1302 -0.0000 0.0000 0.0000 82.8437 7.2070 38.4047 -18.9820 29.3963 -5.0220 0.0000 0.0000 3.2736 -14.2789 -31.0823 7.4854 7.1250 -0.0000 -0.0000 20.2723 -60.7113 -7.9525
0.00 0.00 0.00 180.4550 24.0312 180.9680 0.0000 0.0000 0.0000 -15.3378 13.8755 -13.9989 0.3905 4.0127 11.1123 0.0404 10.2692 -15.2485 0.0123 0.7156 1.9665 0.0000 0.0000 0.0000 9.4318 -18.5872 4.3716 -2.1306 -9.1330 26.2122 -0.3562 -25.4143 -37.5953 -0.4549 -4.3266 11.9975 0.6881 3.4378 8.5141 -1.8843 4.7692 2.5969 -2.7997 2.4621 -1.8524 3.6043 0.3675 -19.7924 -1.3414 2.5599 36.7238 -0.4546 2.2744 16.6379 0.0000 0.0000 0.0000 -87.0951 4.9757 14.4375 12.3385 -20.3103 -2.2184 -0.0000 0.0000 -4.3253 25.5523 -21.3580 -9.8773 -7.1250 0.0000 -0.0000 -1.9793 6.5574 1.7414 0.0000 0.0000 0.0000 79.8834 0.8448 36.1779 -25.9880 37.1969 -8.8804 0.0000 -0.0000 -3.7712 -14.0818 -30.4437 7.2435 7.1250 -0.0000 -0.0000 19.9808 -60.0690 -7.5255
0.00 0.00 0.00 178.4150 18.4194 179.0560 0.0000 0.0000 0.0000 -19.4461 13.5833 -10.0119 0.3382 3.7374 10.3389 0.2925 6.6089 -14.7327 0.0178 -0.8616 -2.3680 0.0000 0.0000 0.0000 5.9836 -13.9920 0.6787 -5.0715 -13.4639 41.1308 1.7749 -25.6481 -22.6715 -3.6493 -11.6786 34.6041 -2.1143 2.5680 9.1150 -2.0106 3.4157 2.8229 -1.2645 1.8096 -2.1697 1.6969 -0.8275 -19.6621 0.4262 0.9068 37.1422 0.3577 1.6413 16.7472 0.0000 -0.0000 0.0000 -87.0971 2.2151 20.7988 13.1877 -21.5616 -2.5218 -0.0000 0.0000 -6.5711 26.2757 -22.8567 -10.8557 -7.1250 0.0000 -0.0000 -1.7064 4.8111 1.5580 0.0000 -0.0000 0.0000 79.5942 -3.7805 36.6199 -25.7510 36.9618 -8.7375 0.0000 -0.0000 -3.0502 -12.9147 -28.8666 6.3169 7.1250 -0.0000 -0.0000 20.0445 -58.3294 -6.7093
0.00 0.00 0.00 173.7250 13.5349 176.8830 0.0000 0.0000 0.0000 -26.1019 12.3920 -5.8031 0.2412 3.1608 8.7269 0.4149 4.2052 -14.4447 0.0251 -1.0228 -2.8114 0.0000 0.0000 0.0000 0.7961 -10.7575 -2.7493 -7.5016 -15.7402 50.7470 0.5957 -13.9356 -8.7924 -1.4960 -7.7262 21.8855 -7.9706 1.5844 9.4826 -2.8583 1.7581 3.4386 1.3011 1.0456 -1.8430 0.7932 -1.2928 -19.5967 1.1092 0.2028 36.8456 0.6709 1.3056 16.5719 -0.0000 -0.0000 0.0000 -86.7009 -1.0789 25.5779 13.5050 -22.0226 -2.6396 -0.0000 0.0000 -3.5051 27.2137 -22.3826 -11.0791 -7.1250 0.0000 -0.0000 -1.0627 5.1358 0.9635 -0.0000 -0.0000 0.0000 80.4992 -6.2019 35.3462 -24.2906 35.4700 -7.8745 0.0000 -0.0000 -1.1744 -10.4759 -28.8135 5.0925 7.1250 -0.0000 -0.0000 22.5018 -57.7521 -7.2674
0.00 0.00 0.00 166.6090 2.7774 179.6800 0.0000 0.0000 0.0000 -34.7536 13.8698 9.2567 0.5229 4.6344 12.8687 1.3783 -7.1382 -20.9949 0.9872 -6.3240 -17.7275 0.0000 0.0000 0.0000 16.6176 -8.0446 -20.7784 -0.2151 -2.9861 8.2402 0.4392 -15.5287 -16.6853 -4.4321 -12.7143 38.3081 -14.8913 -2.6138 5.1265 -3.0340 -3.7218 2.1951 5.2601 -1.7607 0.2411 -9.4514 -9.8864 -15.7617 8.6857 -12.8452 31.2755 3.0149 -4.8976 14.7025 -0.0000 0.0000 0.0000 -85.5050 -6.8559 47.6588 22.7413 -33.8047 -6.9938 -0.0000 0.0000 -4.3874 22.6753 -23.2333 -9.3589 -7.1250 0.0000 -0.0000 -3.9853 5.0810 3.6257 -0.0000 0.0000 0.0000 83.6775 -17.9044 26.1749 -17.6682 27.7303 -4.3938 0.0000 0.0000 4.2600 -9.3435 -30.4142 4.7615 7.1250 -0.0000 -0.0000 24.8725 -58.9579 -8.8263
0.00 0.00 0.00 170.3980 6.2496 178.2590 0.0000 0.0000 0.0000 -27.8001 16.2620 5.5134 2.5966 10.0114 29.0136 0.3157 -12.0074 -12.2612 0.6613 -5.2011 -14.4830 0.0000 0.0000 0.0000 21.1321 -10.5699 -18.7738 -0.5828 -4.8881 13.5896 -0.5501 -8.1739 -19.3048 -4.3922 -12.6648 38.1262 -8.4283 -2.4293 5.4302 -1.0337 -3.4644 2.4161 3.8177 -1.7126 -0.0852 -10.4117 -10.5996 -14.7581 9.2556 -13.9005 29.7713 3.1798 -5.5166 14.0827 0.0000 -0.0000 0.0000 -87.5940 -2.2139 42.7496 21.2582 -32.1285 -6.1867 -0.0000 0.0000 -2.5550 22.4600 -23.6167 -9.4036 -7.1250 0.0000 -0.0000 -4.1591 4.7168 3.8132 0.0000 -0.0000 0.0000 82.7434 -15.6971 23.9419 -18.1977 28.4096 -4.6429 0.0000 0.0000 2.5487 -10.3016 -31.0742 5.3595 7.1250 -0.0000 -0.0000 24.4330 -59.7689 -9.1376
0.00 0.00 0.00 169.7550 11.9941 175.5390 0.0000 0.0000 0.0000 -24.2621 17.6332 -1.0567 6.5417 14.9335 47.1190 -0.1874 -7.9651 5.2795 0.2443 -3.1804 -8.7815 0.0000 0.0000 0.0000 20.9569 -9.1652 -11.8977 -0.5455 -4.7319 13.1456 -0.9299 -4.5054 -20.3802 -3.9722 -12.1233 36.1697 -7.7496 -1.1145 6.8770 -0.7450 -1.7722 2.8564 3.7005 -0.8463 -0.6628 -9.9865 -11.4674 -14.6397 9.0075 -15.2637 29.2208 2.7291 -6.1365 13.9199 -0.0000 0.0000 0.0000 -87.0871 2.4920 41.0106 20.1730 -30.8502 -5.6198 -0.0000 0.0000 -2.8589 23.0218 -22.9240 -9.3980 -7.1250 0.0000 -0.0000 -3.7373 5.3453 3.3802 -0.0000 0.0000 0.0000 83.5339 -14.1749 22.2648 -19.8919 30.5119 -5.4764 0.0000 -0.0000 -0.7886 -13.4538 -29.2360 6.6642 7.1250 -0.0000 -0.0000 19.7465 -58.7947 -6.8269
0.00 0.00 0.00 176.9360 30.3783 176.7960 0.0000 0.0000 0.0000 -12.4503 3.3597 -13.9524 11.6971 18.2597 65.0255 -0.0058 3.7739 -5.1204 0.0682 -1.6849 -4.6356 0.0000 0.0000 0.0000 23.7790 -8.7640 -11.0351 -0.5017 -4.5409 12.6035 -0.9141 -4.7007 -20.3504 -3.6385 -11.6631 34.5504 1.4016 -0.3830 7.9964 1.2328 -0.2304 2.4041 0.5031 -0.0589 -1.9991 -8.2154 -11.2433 -13.5701 9.0516 -15.5638 28.0954 2.4419 -6.2164 13.0729 -0.0000 -0.0000 0.0000 -87.8645 10.0697 23.8628 12.6683 -20.7993 -2.3342 -0.0000 -0.0000 11.1101 21.8566 -22.7773 -8.8271 -7.1250 0.0000 -0.0000 -4.4492 5.6992 3.9977 -0.0000 -0.0000 0.0000 82.8482 -6.9237 34.1590 -24.6473 35.8413 -8.0825 0.0000 -0.0000 -1.3001 -8.2127 -31.2103 4.2771 7.1250 -0.0000 -0.0000 26.6826 -59.4115 -9.8200
